<svg xmlns="http://www.w3.org/2000/svg" viewBox="0 0 48.58 50.41"><defs><style>.cls-1,.cls-2{fill:#1c998b;stroke:#1c998b;stroke-miterlimit:10;}.cls-2{stroke-width:0.75px;}</style></defs><title>Camada 2 (3)</title><g id="Camada_2" data-name="Camada 2"><g id="Camada_2-2" data-name="Camada 2"><path class="cls-1" d="M30.08,1.53c1.09,1.1,4.8,15.94,5,17l11,4c1.67.85,2,1.53,2,2,0,.94-1.48,1.74-8,4-2.44.85-4.5,1.52-6,2l-2,9L30.58,48a1.71,1.71,0,0,1-1,1,1.86,1.86,0,0,1-1.5-.5c-1.79-1.37-4.57-15.74-5-18l-13-5c-.35-.16-1-.51-1-1s.78-1.12,1.5-1.5a112.63,112.63,0,0,1,11.5-4.5l2-6,3-11a1.74,1.74,0,0,1,1-1C28.89.33,29.71,1.16,30.08,1.53Z"/><g id="Camada_3" data-name="Camada 3"><path class="cls-1" d="M4.58,11s1.34,4.74,2,5a1.41,1.41,0,0,0,1,0c.67-.26,2-5,2-5s4.74-1.33,5-2a1.47,1.47,0,0,0,0-1c-.26-.66-5-2-5-2-.1-2-1.59-4.95-2-5s-1,.44-1.24.69A23,23,0,0,0,4.58,6S.82,7.32.58,8a1.58,1.58,0,0,0,0,1C.82,9.74,4.58,11,4.58,11Z"/><path class="cls-2" d="M14.58,35c0-.08-.05-.16-.07-.24C14,33,13.16,31.94,12.58,32s-.95,1.73-1,2l-1,4c-.67.34-4.15,2.26-4,3s.87.95,1,1l.35.12,2.65.88a53.48,53.48,0,0,0,2,6c.41.61.69,1,1,1,.66,0,1-1.9,1-2l1-5s3.76-1.29,4-2a1.58,1.58,0,0,0,0-1,1.7,1.7,0,0,0-1-1l-3-1Z"/></g></g></g></svg>